<svg xmlns="http://www.w3.org/2000/svg" xmlns:svg="http://www.w3.org/2000/svg" id="svg4572" width="400mm" height="150mm" version="1.1" viewBox="0 0 400 150"><defs id="defs4566"><marker style="overflow:visible" id="marker4843" orient="auto" refX="0" refY="0"><path style="fill-rule:evenodd;stroke-width:.625;stroke-linejoin:round;stroke:#757475;stroke-opacity:1;fill:#757475;fill-opacity:1" id="path4841" d="M 8.7185878,4.0337352 L -2.2072895,0.016013256 L 8.7185884,-4.0017078 C 6.9730900,-1.6296469 6.9831476,1.6157441 8.7185878,4.0337352 z" transform="scale(0.6) rotate(180) translate(0,0)"/></marker><marker style="overflow:visible" id="marker6973" orient="auto" refX="0" refY="0"><path style="fill-rule:evenodd;stroke-width:.625;stroke-linejoin:round;stroke:#757475;stroke-opacity:1;fill:#757475;fill-opacity:1" id="path6971" d="M 8.7185878,4.0337352 L -2.2072895,0.016013256 L 8.7185884,-4.0017078 C 6.9730900,-1.6296469 6.9831476,1.6157441 8.7185878,4.0337352 z" transform="scale(0.6) rotate(180) translate(0,0)"/></marker><marker style="overflow:visible" id="marker6801" orient="auto" refX="0" refY="0"><path style="fill-rule:evenodd;stroke-width:.625;stroke-linejoin:round;stroke:#757475;stroke-opacity:1;fill:#757475;fill-opacity:1" id="path6799" d="M 8.7185878,4.0337352 L -2.2072895,0.016013256 L 8.7185884,-4.0017078 C 6.9730900,-1.6296469 6.9831476,1.6157441 8.7185878,4.0337352 z" transform="scale(0.6) rotate(180) translate(0,0)"/></marker><marker style="overflow:visible" id="marker6635" orient="auto" refX="0" refY="0"><path style="fill-rule:evenodd;stroke-width:.625;stroke-linejoin:round;stroke:#757475;stroke-opacity:1;fill:#757475;fill-opacity:1" id="path6633" d="M 8.7185878,4.0337352 L -2.2072895,0.016013256 L 8.7185884,-4.0017078 C 6.9730900,-1.6296469 6.9831476,1.6157441 8.7185878,4.0337352 z" transform="scale(0.6) rotate(180) translate(0,0)"/></marker><marker style="overflow:visible" id="marker6475" orient="auto" refX="0" refY="0"><path style="fill-rule:evenodd;stroke-width:.625;stroke-linejoin:round;stroke:#757475;stroke-opacity:1;fill:#757475;fill-opacity:1" id="path6473" d="M 8.7185878,4.0337352 L -2.2072895,0.016013256 L 8.7185884,-4.0017078 C 6.9730900,-1.6296469 6.9831476,1.6157441 8.7185878,4.0337352 z" transform="scale(0.6) rotate(180) translate(0,0)"/></marker><marker style="overflow:visible" id="marker6321" orient="auto" refX="0" refY="0"><path style="fill-rule:evenodd;stroke-width:.625;stroke-linejoin:round;stroke:#f2f2f2;stroke-opacity:1;fill:#f2f2f2;fill-opacity:1" id="path6319" d="M 8.7185878,4.0337352 L -2.2072895,0.016013256 L 8.7185884,-4.0017078 C 6.9730900,-1.6296469 6.9831476,1.6157441 8.7185878,4.0337352 z" transform="scale(0.6) rotate(180) translate(0,0)"/></marker><marker style="overflow:visible" id="marker6173" orient="auto" refX="0" refY="0"><path style="fill-rule:evenodd;stroke-width:.625;stroke-linejoin:round;stroke:none;stroke-opacity:1;fill:#757475;fill-opacity:1" id="path6171" d="M 8.7185878,4.0337352 L -2.2072895,0.016013256 L 8.7185884,-4.0017078 C 6.9730900,-1.6296469 6.9831476,1.6157441 8.7185878,4.0337352 z" transform="scale(0.6) rotate(180) translate(0,0)"/></marker><marker id="marker6025" orient="auto" refX="0" refY="0" style="overflow:visible"><path id="path6023" d="M 8.7185878,4.0337352 L -2.2072895,0.016013256 L 8.7185884,-4.0017078 C 6.9730900,-1.6296469 6.9831476,1.6157441 8.7185878,4.0337352 z" transform="scale(0.6) rotate(180) translate(0,0)" style="fill-rule:evenodd;stroke-width:.625;stroke-linejoin:round;stroke:none;stroke-opacity:1;fill:#404040;fill-opacity:1"/></marker><marker id="marker5889" orient="auto" refX="0" refY="0" style="overflow:visible"><path id="path5887" d="M 8.7185878,4.0337352 L -2.2072895,0.016013256 L 8.7185884,-4.0017078 C 6.9730900,-1.6296469 6.9831476,1.6157441 8.7185878,4.0337352 z" transform="scale(0.6) rotate(180) translate(0,0)" style="fill-rule:evenodd;stroke-width:.625;stroke-linejoin:round;stroke:#757475;stroke-opacity:1;fill:#757475;fill-opacity:1"/></marker><marker id="marker5759" orient="auto" refX="0" refY="0" style="overflow:visible"><path id="path5757" d="M 8.7185878,4.0337352 L -2.2072895,0.016013256 L 8.7185884,-4.0017078 C 6.9730900,-1.6296469 6.9831476,1.6157441 8.7185878,4.0337352 z" transform="scale(0.6) rotate(180) translate(0,0)" style="fill-rule:evenodd;stroke-width:.625;stroke-linejoin:round;stroke:#757475;stroke-opacity:1;fill:#757475;fill-opacity:1"/></marker><marker id="marker5635" orient="auto" refX="0" refY="0" style="overflow:visible"><path id="path5633" d="M 8.7185878,4.0337352 L -2.2072895,0.016013256 L 8.7185884,-4.0017078 C 6.9730900,-1.6296469 6.9831476,1.6157441 8.7185878,4.0337352 z" transform="scale(0.6) rotate(180) translate(0,0)" style="fill-rule:evenodd;stroke-width:.625;stroke-linejoin:round;stroke:#757475;stroke-opacity:1;fill:#757475;fill-opacity:1"/></marker><marker id="marker5517" orient="auto" refX="0" refY="0" style="overflow:visible"><path id="path5515" d="M 8.7185878,4.0337352 L -2.2072895,0.016013256 L 8.7185884,-4.0017078 C 6.9730900,-1.6296469 6.9831476,1.6157441 8.7185878,4.0337352 z" transform="scale(0.6) rotate(180) translate(0,0)" style="fill-rule:evenodd;stroke-width:.625;stroke-linejoin:round;stroke:#757475;stroke-opacity:1;fill:#757475;fill-opacity:1"/></marker><marker id="marker5405" orient="auto" refX="0" refY="0" style="overflow:visible"><path id="path5403" d="M 8.7185878,4.0337352 L -2.2072895,0.016013256 L 8.7185884,-4.0017078 C 6.9730900,-1.6296469 6.9831476,1.6157441 8.7185878,4.0337352 z" transform="scale(0.6) rotate(180) translate(0,0)" style="fill-rule:evenodd;stroke-width:.625;stroke-linejoin:round;stroke:#757475;stroke-opacity:1;fill:#757475;fill-opacity:1"/></marker><marker id="marker5299" orient="auto" refX="0" refY="0" style="overflow:visible"><path id="path5297" d="M 8.7185878,4.0337352 L -2.2072895,0.016013256 L 8.7185884,-4.0017078 C 6.9730900,-1.6296469 6.9831476,1.6157441 8.7185878,4.0337352 z" transform="scale(0.6) rotate(180) translate(0,0)" style="fill-rule:evenodd;stroke-width:.625;stroke-linejoin:round;stroke:none;stroke-opacity:1;fill:#757475;fill-opacity:1"/></marker><marker style="overflow:visible" id="marker4741" orient="auto" refX="0" refY="0"><path style="fill-rule:evenodd;stroke-width:.625;stroke-linejoin:round;stroke:#f2f2f2;stroke-opacity:1;fill:#f2f2f2;fill-opacity:1" id="path4739" d="M 8.7185878,4.0337352 L -2.2072895,0.016013256 L 8.7185884,-4.0017078 C 6.9730900,-1.6296469 6.9831476,1.6157441 8.7185878,4.0337352 z" transform="scale(0.6) rotate(180) translate(0,0)"/></marker><marker id="marker5904" orient="auto" refX="0" refY="0" style="overflow:visible"><path id="path5668" d="M 8.7185878,4.0337352 L -2.2072895,0.016013256 L 8.7185884,-4.0017078 C 6.9730900,-1.6296469 6.9831476,1.6157441 8.7185878,4.0337352 z" transform="scale(0.6) rotate(180) translate(0,0)" style="fill-rule:evenodd;stroke-width:.625;stroke-linejoin:round;stroke:#757475;stroke-opacity:1;fill:#757475;fill-opacity:1"/></marker><marker id="Arrow2Mend" orient="auto" refX="0" refY="0" style="overflow:visible"><path id="path4937" d="M 8.7185878,4.0337352 -2.2072895,0.01601326 8.7185884,-4.0017078 c -1.7454984,2.3720609 -1.7354408,5.6174519 -6e-7,8.035443 z" transform="scale(-0.6)" style="fill:#757475;fill-opacity:1;fill-rule:evenodd;stroke:#757475;stroke-width:.625;stroke-linejoin:round;stroke-opacity:1"/></marker><marker style="overflow:visible" id="marker5436" orient="auto" refX="0" refY="0"><path style="fill:#276fbf;fill-opacity:1;fill-rule:evenodd;stroke:#276fbf;stroke-width:1.00000003pt;stroke-opacity:1" id="path5434" d="M 0,0 5,-5 -12.5,0 5,5 Z" transform="matrix(-0.4,0,0,-0.4,-4,0)"/></marker><marker style="overflow:visible" id="marker5432" orient="auto" refX="0" refY="0"><path style="fill:#276fbf;fill-opacity:1;fill-rule:evenodd;stroke:#276fbf;stroke-width:1.00000003pt;stroke-opacity:1" id="path5430" d="M 0,0 5,-5 -12.5,0 5,5 Z" transform="matrix(-0.4,0,0,-0.4,-4,0)"/></marker><marker style="overflow:visible" id="marker5428" orient="auto" refX="0" refY="0"><path style="fill:#276fbf;fill-opacity:1;fill-rule:evenodd;stroke:#276fbf;stroke-width:1.00000003pt;stroke-opacity:1" id="path5426" d="M 0,0 5,-5 -12.5,0 5,5 Z" transform="matrix(-0.4,0,0,-0.4,-4,0)"/></marker><marker style="overflow:visible" id="marker5424" orient="auto" refX="0" refY="0"><path style="fill:#276fbf;fill-opacity:1;fill-rule:evenodd;stroke:#276fbf;stroke-width:1.00000003pt;stroke-opacity:1" id="path5422" d="M 0,0 5,-5 -12.5,0 5,5 Z" transform="matrix(-0.4,0,0,-0.4,-4,0)"/></marker><marker style="overflow:visible" id="marker5420" orient="auto" refX="0" refY="0"><path style="fill:#276fbf;fill-opacity:1;fill-rule:evenodd;stroke:#276fbf;stroke-width:1.00000003pt;stroke-opacity:1" id="path5418" d="M 0,0 5,-5 -12.5,0 5,5 Z" transform="matrix(-0.4,0,0,-0.4,-4,0)"/></marker><marker style="overflow:visible" id="marker5416" orient="auto" refX="0" refY="0"><path style="fill:#276fbf;fill-opacity:1;fill-rule:evenodd;stroke:#276fbf;stroke-width:1.00000003pt;stroke-opacity:1" id="path5414" d="M 0,0 5,-5 -12.5,0 5,5 Z" transform="matrix(-0.4,0,0,-0.4,-4,0)"/></marker><marker id="marker5264" orient="auto" refX="0" refY="0" style="overflow:visible"><path id="path5262" d="M 0,0 5,-5 -12.5,0 5,5 Z" transform="matrix(-0.8,0,0,-0.8,-10,0)" style="fill:#439a86;fill-opacity:1;fill-rule:evenodd;stroke:#439a86;stroke-width:1.00000003pt;stroke-opacity:1"/></marker><marker id="marker5260" orient="auto" refX="0" refY="0" style="overflow:visible"><path id="path5258" d="M 0,0 5,-5 -12.5,0 5,5 Z" transform="matrix(-0.8,0,0,-0.8,-10,0)" style="fill:#276fbf;fill-opacity:1;fill-rule:evenodd;stroke:#276fbf;stroke-width:1.00000003pt;stroke-opacity:1"/></marker><marker style="overflow:visible" id="marker5256" orient="auto" refX="0" refY="0"><path style="fill:#276fbf;fill-opacity:1;fill-rule:evenodd;stroke:#276fbf;stroke-width:1.00000003pt;stroke-opacity:1" id="path5254" d="M 0,0 5,-5 -12.5,0 5,5 Z" transform="matrix(-0.8,0,0,-0.8,-10,0)"/></marker><marker style="overflow:visible" id="marker5252" orient="auto" refX="0" refY="0"><path style="fill:#276fbf;fill-opacity:1;fill-rule:evenodd;stroke:#276fbf;stroke-width:1.00000003pt;stroke-opacity:1" id="path5250" d="M 0,0 5,-5 -12.5,0 5,5 Z" transform="matrix(-0.8,0,0,-0.8,-10,0)"/></marker><marker style="overflow:visible" id="marker5248" orient="auto" refX="0" refY="0"><path style="fill:#276fbf;fill-opacity:1;fill-rule:evenodd;stroke:#276fbf;stroke-width:1.00000003pt;stroke-opacity:1" id="path5246" d="M 0,0 5,-5 -12.5,0 5,5 Z" transform="matrix(-0.8,0,0,-0.8,-10,0)"/></marker><marker id="Arrow2Lend" orient="auto" refX="0" refY="0" style="overflow:visible"><path id="path4997" d="M 8.7185878,4.0337352 -2.2072895,0.01601326 8.7185884,-4.0017078 c -1.7454984,2.3720609 -1.7354408,5.6174519 -6e-7,8.035443 z" transform="matrix(-1.1,0,0,-1.1,-1.1,0)" style="fill:#276fbf;fill-opacity:1;fill-rule:evenodd;stroke:#276fbf;stroke-width:.625;stroke-linejoin:round;stroke-opacity:1"/></marker></defs><metadata id="metadata4569"/><g id="layer1" transform="translate(0,-147)"><g id="g6234" transform="translate(-41.708341,-1.1271057)"><rect style="fill:#f2f2f2;fill-opacity:1;stroke:#ccc;stroke-width:.57621408;stroke-miterlimit:4;stroke-dasharray:none;stroke-opacity:1" id="rect5465" width="64" height="32" x="334.376" y="206.54" rx="0" ry="2.337"/><text id="text4540" x="366.577" y="220.01" xml:space="preserve" style="font-style:normal;font-weight:400;font-size:11.28888893px;line-height:1;font-family:sans-serif;text-align:start;letter-spacing:0;word-spacing:0;text-anchor:start;fill:#404040;fill-opacity:1;stroke:none;stroke-width:.26458332"><tspan id="tspan4548" x="366.577" y="220.01" style="font-style:normal;font-variant:normal;font-weight:400;font-stretch:normal;font-size:11.28888893px;line-height:.75;font-family:sans-serif;-inkscape-font-specification:'sans-serif, Normal';font-variant-ligatures:normal;font-variant-caps:normal;font-variant-numeric:normal;font-feature-settings:normal;text-align:center;writing-mode:lr-tb;text-anchor:middle;fill:#404040;fill-opacity:1;stroke-width:.26458332">generated</tspan><tspan id="tspan4552" x="366.577" y="231.299" style="font-style:normal;font-variant:normal;font-weight:400;font-stretch:normal;font-size:11.28888893px;line-height:.75;font-family:sans-serif;-inkscape-font-specification:'sans-serif, Normal';font-variant-ligatures:normal;font-variant-caps:normal;font-variant-numeric:normal;font-feature-settings:normal;text-align:center;writing-mode:lr-tb;text-anchor:middle;fill:#404040;fill-opacity:1;stroke-width:.26458332">password</tspan></text></g><rect id="rect4588" width="64" height="32" x="208.148" y="205.413" rx="0" ry="2.337" style="fill:#0275d8;fill-opacity:1;stroke:none;stroke-width:.57621408;stroke-miterlimit:4;stroke-dasharray:none;stroke-opacity:1"/><text style="font-style:normal;font-weight:400;font-size:10.58333302px;line-height:1;font-family:sans-serif;letter-spacing:0;word-spacing:0;fill:#fff;fill-opacity:1;stroke:none;stroke-width:.26458332" id="text4578" x="239.889" y="225.196" xml:space="preserve"><tspan style="line-height:.75;text-align:center;text-anchor:middle;fill:#fff;fill-opacity:1;stroke-width:.26458332" id="tspan4576" x="239.889" y="225.196">LessPass</tspan></text><g id="g4639" transform="translate(538.36872,20.085291)" style="stroke-width:.26458332;stroke-miterlimit:4;stroke-dasharray:none"><rect id="rect4603" width="117.116" height="16.413" x="-495.192" y="206.53" ry="1.355" style="opacity:1;vector-effect:none;fill:#f2f2f2;fill-opacity:1;stroke:#ccc;stroke-width:.26458332;stroke-linecap:butt;stroke-linejoin:miter;stroke-miterlimit:4;stroke-dasharray:none;stroke-dashoffset:0;stroke-opacity:1"/><path id="path4732" d="m -487.44104,214.35196 h 3.07879 v -1.15455 q 0,-0.6374 -0.45099,-1.0884 -0.451,-0.451 -1.0884,-0.451 -0.63741,0 -1.0884,0.451 -0.451,0.451 -0.451,1.0884 z m 5.00304,0.57728 v 3.46363 q 0,0.24053 -0.16837,0.40891 -0.16838,0.16836 -0.40891,0.16836 h -5.77272 q -0.24054,0 -0.40891,-0.16836 -0.16837,-0.16838 -0.16837,-0.40891 v -3.46363 q 0,-0.24054 0.16837,-0.40891 0.16837,-0.16837 0.40891,-0.16837 h 0.19242 v -1.15455 q 0,-1.10644 0.79375,-1.90019 0.79375,-0.79376 1.90019,-0.79376 1.10644,0 1.90019,0.79376 0.79375,0.79375 0.79375,1.90019 v 1.15455 h 0.19242 q 0.24053,0 0.40891,0.16837 0.16837,0.16838 0.16837,0.40891 z" style="fill:#404040;fill-opacity:1;stroke-width:.26458332;stroke-miterlimit:4;stroke-dasharray:none"/><text style="font-style:normal;font-weight:400;font-size:11.28888893px;line-height:1;font-family:sans-serif;text-align:start;letter-spacing:0;word-spacing:0;text-anchor:start;fill:#404040;fill-opacity:1;stroke:none;stroke-width:.26458332;stroke-miterlimit:4;stroke-dasharray:none" id="text4738" x="-479.935" y="217.851" xml:space="preserve"><tspan style="font-style:normal;font-variant:normal;font-weight:400;font-stretch:normal;font-size:11.28888893px;line-height:.75;font-family:sans-serif;-inkscape-font-specification:'sans-serif, Normal';font-variant-ligatures:normal;font-variant-caps:normal;font-variant-numeric:normal;font-feature-settings:normal;text-align:start;writing-mode:lr-tb;text-anchor:start;fill:#404040;fill-opacity:1;stroke-width:.26458332;stroke-miterlimit:4;stroke-dasharray:none" id="tspan4736" x="-479.935" y="217.851">master password</tspan></text></g><g id="g4633" transform="translate(538.36872,20.085291)"><rect style="opacity:1;vector-effect:none;fill:#f2f2f2;fill-opacity:1;stroke:#ccc;stroke-width:.5291667;stroke-linecap:butt;stroke-linejoin:miter;stroke-miterlimit:4;stroke-dasharray:none;stroke-dashoffset:0;stroke-opacity:1" id="rect4572" width="47.432" height="16.729" x="-425.35" y="180.788" ry="1.381"/><path id="path4740" d="m -412.00938,191.95836 q 0,0.66145 -0.40239,1.04455 -0.40238,0.38309 -1.06935,0.38309 h -4.81763 q -0.66697,0 -1.06935,-0.38309 -0.40239,-0.3831 -0.40239,-1.04455 0,-0.29214 0.0193,-0.57051 0.0193,-0.27836 0.0772,-0.60082 0.0579,-0.32246 0.14607,-0.59807 0.0882,-0.27561 0.23703,-0.53743 0.14883,-0.26183 0.34175,-0.44649 0.19293,-0.18465 0.47129,-0.2949 0.27836,-0.11024 0.6146,-0.11024 0.0496,0 0.23152,0.11851 0.1819,0.11851 0.41065,0.26458 0.22876,0.14608 0.59531,0.26459 0.36656,0.11851 0.73588,0.11851 0.36931,0 0.73587,-0.11851 0.36656,-0.11851 0.59531,-0.26459 0.22875,-0.14607 0.41066,-0.26458 0.1819,-0.11851 0.23151,-0.11851 0.33624,0 0.6146,0.11024 0.27837,0.11025 0.47129,0.2949 0.19293,0.18466 0.34175,0.44649 0.14883,0.26182 0.23703,0.53743 0.0882,0.27561 0.14607,0.59807 0.0579,0.32246 0.0772,0.60082 0.0193,0.27837 0.0193,0.57051 z m -1.76389,-4.92235 q 0,0.87643 -0.62011,1.49655 -0.62012,0.62012 -1.49655,0.62012 -0.87644,0 -1.49655,-0.62012 -0.62012,-0.62011 -0.62012,-1.49655 0,-0.87643 0.62012,-1.49655 0.62011,-0.62012 1.49655,-0.62012 0.87643,0 1.49655,0.62012 0.62011,0.62012 0.62011,1.49655 z" style="fill:#404040;fill-opacity:1;stroke-width:.56779581;stroke-miterlimit:4;stroke-dasharray:none"/><text style="font-style:normal;font-variant:normal;font-weight:400;font-stretch:normal;font-size:11.28888893px;line-height:1.25;font-family:sans-serif;-inkscape-font-specification:'sans-serif, Normal';font-variant-ligatures:normal;font-variant-caps:normal;font-variant-numeric:normal;font-feature-settings:normal;text-align:start;letter-spacing:0;word-spacing:0;writing-mode:lr-tb;text-anchor:start;fill:#404040;fill-opacity:1;stroke:none;stroke-width:.56779581;stroke-miterlimit:4;stroke-dasharray:none" id="text4744-3" x="-410.021" y="192.267" xml:space="preserve"><tspan id="tspan4742-6" x="-410.021" y="192.267" style="fill:#404040;fill-opacity:1;stroke-width:.56779581;stroke-miterlimit:4;stroke-dasharray:none">login</tspan></text></g><rect style="opacity:1;vector-effect:none;fill:#f2f2f2;fill-opacity:1;stroke:#ccc;stroke-width:.5291667;stroke-linecap:butt;stroke-linejoin:miter;stroke-miterlimit:4;stroke-dasharray:none;stroke-dashoffset:0;stroke-opacity:1" id="rect4564" width="41.109" height="16.768" x="119.361" y="175.27" ry="1.384"/><path id="path4613" d="m 130.09295,179.42053 q 1.15204,0 2.12493,0.56776 0.9729,0.56774 1.54065,1.54064 0.56775,0.9729 0.56775,2.12494 0,1.15204 -0.56775,2.12493 -0.56775,0.9729 -1.54065,1.54065 -0.97289,0.56775 -2.12493,0.56775 -1.15204,0 -2.12494,-0.56775 -0.97289,-0.56775 -1.54065,-1.54065 -0.56775,-0.97289 -0.56775,-2.12493 0,-1.15204 0.56775,-2.12494 0.56776,-0.9729 1.54065,-1.54064 0.9729,-0.56775 2.12494,-0.56776 z m 1.51033,2.87183 q -0.011,0.005 -0.0524,0.0524 -0.0413,0.0469 -0.0744,0.0524 0.011,0 0.0248,-0.0276 0.0138,-0.0276 0.0276,-0.0606 0.0138,-0.0331 0.0193,-0.0386 0.0331,-0.0386 0.12126,-0.0827 0.0772,-0.0331 0.28664,-0.0661 0.18741,-0.0441 0.28112,0.0606 -0.011,-0.011 0.0524,-0.0717 0.0634,-0.0606 0.0799,-0.0661 0.0165,-0.011 0.0827,-0.0248 0.0661,-0.0138 0.0827,-0.0414 l 0.011,-0.12127 q -0.0661,0.006 -0.0965,-0.0386 -0.0303,-0.0441 -0.0358,-0.11576 0,0.011 -0.0331,0.0441 0,-0.0386 -0.0248,-0.0441 -0.0248,-0.005 -0.0634,0.006 -0.0386,0.011 -0.0496,0.005 -0.0551,-0.0165 -0.0827,-0.0414 -0.0276,-0.0248 -0.0441,-0.091 -0.0165,-0.0661 -0.022,-0.0827 -0.011,-0.0276 -0.0524,-0.0579 -0.0413,-0.0303 -0.0524,-0.0579 -0.005,-0.011 -0.0138,-0.0303 -0.008,-0.0193 -0.0165,-0.0358 -0.008,-0.0165 -0.022,-0.0303 -0.0138,-0.0138 -0.0303,-0.0138 -0.0165,0 -0.0386,0.0276 -0.022,0.0276 -0.0413,0.0551 -0.0193,0.0276 -0.0248,0.0276 -0.0165,-0.011 -0.0331,-0.008 -0.0165,0.003 -0.0248,0.006 -0.008,0.003 -0.0248,0.0165 -0.0165,0.0138 -0.0276,0.0193 -0.0165,0.011 -0.0469,0.0165 -0.0303,0.006 -0.0469,0.011 0.0827,-0.0276 -0.005,-0.0606 -0.0551,-0.0221 -0.0882,-0.0166 0.0496,-0.0221 0.0413,-0.0661 -0.008,-0.0441 -0.0469,-0.0772 h 0.0276 q -0.005,-0.0221 -0.0469,-0.0469 -0.0413,-0.0248 -0.0965,-0.0468 -0.0551,-0.0221 -0.0717,-0.0331 -0.0441,-0.0276 -0.18742,-0.0524 -0.14331,-0.0248 -0.1819,-0.003 -0.0276,0.0331 -0.0248,0.0579 0.003,0.0248 0.022,0.0772 0.0193,0.0524 0.0193,0.0689 0.005,0.0331 -0.0303,0.0717 -0.0358,0.0386 -0.0358,0.0661 0,0.0386 0.0772,0.0854 0.0772,0.0468 0.0551,0.11851 -0.0165,0.0441 -0.0882,0.0882 -0.0717,0.0441 -0.0882,0.0661 -0.0276,0.0441 -0.008,0.10198 0.0193,0.0579 0.0579,0.0909 0.011,0.011 0.008,0.0221 -0.003,0.011 -0.0193,0.0248 -0.0165,0.0138 -0.0303,0.0221 -0.0138,0.008 -0.0358,0.0193 l -0.0165,0.011 q -0.0606,0.0276 -0.113,-0.0331 -0.0524,-0.0606 -0.0744,-0.14331 -0.0386,-0.13781 -0.0882,-0.16537 -0.12678,-0.0441 -0.15985,0.006 -0.0276,-0.0717 -0.226,-0.14332 -0.1378,-0.0496 -0.3197,-0.022 0.0331,-0.006 0,-0.0827 -0.0386,-0.0827 -0.10473,-0.0661 0.0165,-0.0331 0.022,-0.0965 0.006,-0.0634 0.006,-0.0744 0.0165,-0.0717 0.0661,-0.12678 0.005,-0.005 0.0386,-0.0468 0.0331,-0.0414 0.0524,-0.0744 0.0193,-0.0331 0.003,-0.0331 0.19292,0.0221 0.2756,-0.0606 0.0276,-0.0276 0.0634,-0.0937 0.0358,-0.0662 0.0579,-0.0937 0.0496,-0.0331 0.0772,-0.0303 0.0276,0.003 0.0799,0.0303 0.0524,0.0276 0.0799,0.0276 0.0772,0.005 0.0854,-0.0606 0.008,-0.0661 -0.0413,-0.11024 0.0661,0.005 0.0165,-0.0937 -0.0276,-0.0386 -0.0441,-0.0496 -0.0661,-0.022 -0.14882,0.0276 -0.0441,0.0221 0.011,0.0441 -0.005,-0.006 -0.0524,0.0579 -0.0468,0.0634 -0.0909,0.0965 -0.0441,0.0331 -0.0882,-0.0276 -0.005,-0.005 -0.0303,-0.0744 -0.0248,-0.0689 -0.0524,-0.0744 -0.0441,0 -0.0882,0.0827 0.0165,-0.0441 -0.0606,-0.0827 -0.0772,-0.0386 -0.1323,-0.0441 0.10473,-0.0661 -0.0441,-0.14882 -0.0386,-0.0221 -0.113,-0.0276 -0.0744,-0.005 -0.10748,0.022 -0.0276,0.0386 -0.0303,0.0634 -0.003,0.0248 0.0276,0.0441 0.0303,0.0193 0.0579,0.0303 0.0276,0.011 0.0634,0.0221 0.0358,0.011 0.0469,0.0165 0.0772,0.0551 0.0441,0.0772 -0.011,0.005 -0.0469,0.0193 -0.0358,0.0138 -0.0634,0.0248 -0.0276,0.011 -0.0331,0.0221 -0.0165,0.0221 0,0.0772 0.0165,0.0551 -0.011,0.0772 -0.0276,-0.0276 -0.0496,-0.0965 -0.022,-0.0689 -0.0386,-0.091 0.0386,0.0496 -0.13781,0.0331 l -0.0551,-0.006 q -0.0221,0 -0.0882,0.011 -0.0661,0.011 -0.113,0.005 -0.0469,-0.005 -0.0744,-0.0441 -0.0221,-0.0441 0,-0.11024 0.005,-0.0221 0.022,-0.011 -0.022,-0.0165 -0.0606,-0.0524 -0.0386,-0.0358 -0.0551,-0.0469 -0.25355,0.0827 -0.51814,0.22599 0.0331,0.006 0.0661,-0.005 0.0276,-0.011 0.0717,-0.0358 0.0441,-0.0248 0.0551,-0.0303 0.18741,-0.0772 0.23151,-0.0386 l 0.0276,-0.0276 q 0.0772,0.0882 0.11025,0.1378 -0.0386,-0.022 -0.16537,-0.005 -0.11024,0.0331 -0.12127,0.0661 0.0386,0.0661 0.0276,0.0992 -0.0221,-0.0166 -0.0634,-0.0551 -0.0413,-0.0386 -0.0799,-0.0606 -0.0386,-0.0221 -0.0827,-0.0276 -0.0882,0 -0.12126,0.006 -0.80478,0.44098 -1.29536,1.2237 0.0386,0.0386 0.0661,0.0441 0.0221,0.005 0.0276,0.0496 0.006,0.0441 0.0138,0.0606 0.008,0.0166 0.0634,-0.0166 0.0496,0.0441 0.0165,0.10473 0.005,-0.005 0.24253,0.14883 0.10473,0.0937 0.11576,0.11575 0.0165,0.0606 -0.0551,0.0992 -0.005,-0.011 -0.0496,-0.0496 -0.0441,-0.0386 -0.0496,-0.022 -0.0165,0.0276 0.003,0.10197 0.0193,0.0744 0.0579,0.0689 -0.0386,0 -0.0524,0.0882 -0.0138,0.0882 -0.0138,0.19568 0,0.10748 -0.005,0.12953 l 0.011,0.006 q -0.0165,0.0661 0.0303,0.19017 0.0469,0.12402 0.11851,0.10748 -0.0717,0.0165 0.11024,0.23702 0.0331,0.0441 0.0441,0.0496 0.0165,0.011 0.0661,0.0414 0.0496,0.0303 0.0827,0.0551 0.0331,0.0248 0.0551,0.0579 0.022,0.0276 0.0551,0.12403 0.0331,0.0965 0.0772,0.12953 -0.011,0.0331 0.0524,0.11025 0.0634,0.0772 0.0579,0.12678 -0.005,0 -0.0138,0.005 -0.008,0.006 -0.0138,0.006 0.0165,0.0386 0.0854,0.0772 0.0689,0.0386 0.0854,0.0717 0.005,0.0166 0.011,0.0551 0.005,0.0386 0.0165,0.0606 0.011,0.022 0.0441,0.011 0.011,-0.11025 -0.13229,-0.34176 -0.0827,-0.1378 -0.0937,-0.15985 -0.0165,-0.0276 -0.0303,-0.0854 -0.0138,-0.0579 -0.0248,-0.0799 0.011,0 0.0331,0.008 0.0221,0.008 0.0469,0.0193 0.0248,0.011 0.0413,0.0221 0.0165,0.011 0.011,0.0165 -0.0165,0.0386 0.011,0.0965 0.0276,0.0579 0.0662,0.10198 0.0386,0.0441 0.0937,0.10473 0.0551,0.0606 0.0661,0.0717 0.0331,0.0331 0.0772,0.10749 0.0441,0.0744 0,0.0744 0.0496,0 0.11024,0.0551 0.0606,0.0551 0.0937,0.11024 0.0276,0.0441 0.0441,0.14332 0.0165,0.0992 0.0276,0.13229 0.011,0.0386 0.0469,0.0744 0.0358,0.0358 0.0689,0.0524 l 0.0882,0.0441 0.0717,0.0386 q 0.0276,0.011 0.10198,0.0579 0.0744,0.0468 0.11851,0.0634 0.0551,0.022 0.0882,0.022 0.0331,0 0.0799,-0.0138 0.0469,-0.0138 0.0744,-0.0193 0.0827,-0.011 0.15985,0.0827 0.0772,0.0937 0.11576,0.11576 0.19844,0.10472 0.30317,0.0606 -0.011,0.005 0.003,0.0413 0.0138,0.0358 0.0441,0.0854 0.0303,0.0496 0.0496,0.0799 0.0193,0.0303 0.0303,0.0469 0.0276,0.0331 0.0992,0.0827 0.0717,0.0496 0.0992,0.0827 0.0331,-0.0221 0.0386,-0.0496 -0.0165,0.0441 0.0386,0.11024 0.0551,0.0662 0.0992,0.0551 0.0772,-0.0166 0.0772,-0.17639 -0.17088,0.0827 -0.2701,-0.0992 0,-0.005 -0.0138,-0.0303 -0.0138,-0.0248 -0.022,-0.0469 -0.008,-0.0221 -0.0138,-0.0469 -0.006,-0.0248 0,-0.0414 0.005,-0.0165 0.0276,-0.0165 0.0496,0 0.0551,-0.0193 0.005,-0.0193 -0.011,-0.0689 -0.0165,-0.0496 -0.022,-0.0717 -0.005,-0.0441 -0.0606,-0.11024 -0.0551,-0.0662 -0.0661,-0.0827 -0.0276,0.0496 -0.0882,0.0441 -0.0606,-0.005 -0.0882,-0.0496 0,0.006 -0.008,0.0303 -0.008,0.0248 -0.008,0.0358 -0.0717,0 -0.0827,-0.005 0.006,-0.0166 0.0138,-0.0965 0.008,-0.0799 0.0193,-0.12402 0.005,-0.0221 0.0303,-0.0661 0.0248,-0.0441 0.0413,-0.0799 0.0165,-0.0358 0.0221,-0.0689 0.005,-0.0331 -0.0248,-0.0524 -0.0303,-0.0193 -0.0965,-0.0138 -0.10473,0.005 -0.14331,0.11024 -0.006,0.0165 -0.0165,0.0579 -0.011,0.0413 -0.0276,0.0634 -0.0165,0.0221 -0.0496,0.0386 -0.0386,0.0165 -0.13229,0.011 -0.0937,-0.005 -0.1323,-0.0276 -0.0717,-0.0441 -0.12402,-0.15985 -0.0524,-0.11576 -0.0524,-0.20395 0,-0.0551 0.0138,-0.14608 0.0138,-0.0909 0.0165,-0.1378 0.003,-0.0469 -0.0303,-0.13505 0.0165,-0.011 0.0496,-0.0524 0.0331,-0.0413 0.0551,-0.0579 0.011,-0.005 0.0248,-0.008 0.0138,-0.003 0.0248,0 0.011,0.003 0.022,-0.008 0.011,-0.011 0.0165,-0.0331 -0.006,-0.005 -0.0221,-0.0165 -0.0165,-0.0165 -0.022,-0.0165 0.0386,0.0165 0.1571,-0.008 0.11851,-0.0248 0.15158,0.008 0.0827,0.0606 0.12127,-0.011 0,-0.006 -0.0138,-0.0524 -0.0138,-0.0469 -0.003,-0.0744 0.0276,0.14883 0.15985,0.0496 0.0165,0.0165 0.0854,0.0276 0.0689,0.011 0.0965,0.0276 0.0165,0.011 0.0386,0.0303 0.0221,0.0193 0.0303,0.0248 0.008,0.006 0.0276,-0.003 0.0193,-0.008 0.0469,-0.0358 0.0551,0.0772 0.0661,0.13229 0.0606,0.22049 0.10473,0.24254 0.0386,0.0165 0.0606,0.011 0.022,-0.005 0.0248,-0.0524 0.003,-0.0469 0,-0.0772 -0.003,-0.0303 -0.008,-0.0689 l -0.006,-0.0441 v -0.0992 l -0.005,-0.0441 q -0.0827,-0.0166 -0.10197,-0.0661 -0.0193,-0.0496 0.008,-0.10198 0.0276,-0.0524 0.0827,-0.10197 0.005,-0.006 0.0441,-0.0193 0.0386,-0.0138 0.0854,-0.0358 0.0468,-0.0221 0.0689,-0.0441 0.11575,-0.10472 0.0827,-0.19292 0.0386,0 0.0606,-0.0496 -0.005,0 -0.0276,-0.0165 -0.022,-0.0166 -0.0413,-0.0276 -0.0193,-0.011 -0.0248,-0.011 0.0496,-0.0276 0.011,-0.0882 0.0276,-0.0165 0.0413,-0.0606 0.0138,-0.0441 0.0413,-0.0551 0.0496,0.0662 0.11575,0.011 0.0386,-0.0441 0.006,-0.0882 0.0276,-0.0386 0.113,-0.0579 0.0854,-0.0193 0.10198,-0.0524 0.0386,0.011 0.0441,-0.011 0.005,-0.0221 0.005,-0.0662 0,-0.0441 0.0165,-0.0661 0.022,-0.0276 0.0827,-0.0496 0.0606,-0.0221 0.0717,-0.0276 l 0.0937,-0.0606 q 0.0165,-0.0221 0,-0.0221 0.0992,0.011 0.17087,-0.0606 0.0551,-0.0606 -0.0331,-0.11025 0.0165,-0.0331 -0.0165,-0.0524 -0.0331,-0.0193 -0.0827,-0.0303 0.0165,-0.005 0.0634,-0.003 0.0469,0.003 0.0579,-0.008 0.0827,-0.0551 -0.0386,-0.0882 -0.0937,-0.0276 -0.23702,0.0661 z m -0.89848,4.83416 q 1.1355,-0.19844 1.93476,-1.0418 -0.0165,-0.0165 -0.0689,-0.0248 -0.0524,-0.008 -0.0689,-0.0193 -0.0992,-0.0386 -0.13229,-0.0441 0.005,-0.0386 -0.0138,-0.0717 -0.0193,-0.0331 -0.0441,-0.0496 -0.0248,-0.0165 -0.0689,-0.0441 -0.0441,-0.0276 -0.0606,-0.0386 -0.011,-0.011 -0.0386,-0.0331 -0.0276,-0.0221 -0.0386,-0.0303 -0.011,-0.008 -0.0413,-0.0248 -0.0303,-0.0165 -0.0469,-0.011 -0.0165,0.006 -0.0551,0.006 l -0.0165,0.005 q -0.0165,0.005 -0.0303,0.0138 -0.0138,0.008 -0.0303,0.0165 -0.0165,0.008 -0.0221,0.0165 -0.005,0.008 0,0.0138 -0.11576,-0.0937 -0.19844,-0.12127 -0.0276,-0.006 -0.0606,-0.0303 -0.0331,-0.0248 -0.0579,-0.0386 -0.0248,-0.0138 -0.0551,-0.008 -0.0303,0.006 -0.0634,0.0386 -0.0276,0.0276 -0.0331,0.0827 -0.006,0.0551 -0.011,0.0717 -0.0386,-0.0276 0,-0.0965 0.0386,-0.0689 0.011,-0.10198 -0.0165,-0.0331 -0.0579,-0.0248 -0.0413,0.008 -0.0661,0.0248 -0.0248,0.0165 -0.0634,0.0468 -0.0386,0.0303 -0.0496,0.0358 -0.011,0.006 -0.0469,0.0303 -0.0358,0.0248 -0.0469,0.0414 -0.0165,0.022 -0.0331,0.0661 -0.0165,0.0441 -0.0276,0.0606 -0.011,-0.0221 -0.0634,-0.0358 -0.0524,-0.0138 -0.0524,-0.0303 0.011,0.0551 0.022,0.19292 0.011,0.1378 0.0276,0.20947 0.0386,0.17088 -0.0661,0.26457 -0.14883,0.13781 -0.15985,0.2205 -0.022,0.12127 0.0661,0.14331 0,0.0386 -0.0441,0.113 -0.0441,0.0744 -0.0386,0.11852 0,0.0331 0.011,0.0882 z" style="fill:#404040;fill-opacity:1;stroke-width:.00551215;marker-mid:url(#marker6025)"/><text style="font-style:normal;font-variant:normal;font-weight:400;font-stretch:normal;font-size:9.87777805px;line-height:1.25;font-family:sans-serif;-inkscape-font-specification:'sans-serif, Normal';font-variant-ligatures:normal;font-variant-caps:normal;font-variant-numeric:normal;font-feature-settings:normal;text-align:start;letter-spacing:0;word-spacing:0;writing-mode:lr-tb;text-anchor:start;fill:#404040;fill-opacity:1;stroke:none;stroke-width:.26458332" id="text4617" x="136.652" y="187.336" xml:space="preserve"><tspan id="tspan4615" x="136.652" y="187.336" style="fill:#404040;fill-opacity:1;stroke-width:.26458332">site</tspan></text><g id="g4674" transform="translate(538.36872,20.085291)"><rect id="rect4627" width="62.351" height="16.648" x="-440.309" y="231.997" ry="1.374" style="opacity:1;vector-effect:none;fill:#f2f2f2;fill-opacity:1;stroke:#ccc;stroke-width:.5291667;stroke-linecap:butt;stroke-linejoin:miter;stroke-miterlimit:4;stroke-dasharray:none;stroke-dashoffset:0;stroke-opacity:1"/><g style="fill:#404040;fill-opacity:1" id="g4632" transform="translate(-383.71564,196.59593)"><path id="path4850" d="m -49.460938,46.155384 v 0.76969 h -1.940277 v -0.76969 z m 1.940277,-0.7697 q 0.143316,0 0.248047,0.11425 0.104731,0.11425 0.104731,0.2706 v 1.53939 q 0,0.15635 -0.104731,0.2706 -0.104731,0.11425 -0.248047,0.11425 h -1.41111 q -0.143316,0 -0.248047,-0.11425 -0.104731,-0.11425 -0.104731,-0.2706 v -1.53939 q 0,-0.15635 0.104731,-0.2706 0.104731,-0.11425 0.248047,-0.11425 z m 0.881945,-2.30909 v 0.7697 h -4.762499 v -0.7697 z m -3.527777,-3.07879 v 0.7697 h -1.234722 v -0.7697 z m 7.231943,6.15758 v 0.76969 h -4.056944 v -0.76969 z m -5.291666,-6.92728 q 0.143315,0 0.248046,0.11426 0.104731,0.11425 0.104731,0.27059 v 1.5394 q 0,0.15634 -0.104731,0.27059 -0.104731,0.11425 -0.248046,0.11425 h -1.411111 q -0.143315,0 -0.248047,-0.11425 -0.10473,-0.11425 -0.10473,-0.27059 v -1.5394 q 0,-0.15634 0.10473,-0.27059 0.104732,-0.11426 0.248047,-0.11426 z m 3.527777,3.07879 q 0.143316,0 0.248047,0.11425 0.104731,0.11426 0.104731,0.2706 v 1.53939 q 0,0.15635 -0.104731,0.2706 -0.104731,0.11425 -0.248047,0.11425 h -1.411111 q -0.143316,0 -0.248047,-0.11425 -0.104731,-0.11425 -0.104731,-0.2706 v -1.53939 q 0,-0.15634 0.104731,-0.2706 0.104731,-0.11425 0.248047,-0.11425 z m 1.763889,0.7697 v 0.7697 h -1.234722 v -0.7697 z m 0,-3.07879 v 0.7697 h -4.7625 v -0.7697 z" style="fill:#404040;fill-opacity:1;stroke-width:.00575726"/><text style="font-style:normal;font-variant:normal;font-weight:400;font-stretch:normal;font-size:11.28888893px;line-height:1.25;font-family:sans-serif;-inkscape-font-specification:'sans-serif, Normal';font-variant-ligatures:normal;font-variant-caps:normal;font-variant-numeric:normal;font-feature-settings:normal;text-align:start;letter-spacing:0;word-spacing:0;writing-mode:lr-tb;text-anchor:start;fill:#404040;fill-opacity:1;stroke:none;stroke-width:.26458332" id="text4873" x="-40.462" y="46.839" xml:space="preserve"><tspan id="tspan4871" x="-40.462" y="46.839" style="fill:#404040;fill-opacity:1;stroke-width:.26458332">options</tspan></text></g></g><path style="fill:none;stroke:#f2f2f2;stroke-width:.529;stroke-linecap:butt;stroke-linejoin:miter;stroke-miterlimit:4;stroke-dasharray:none;stroke-opacity:1" id="path4716" d="m 160.45112,234.9242 10.4104,0.13178 27.20608,-13.70872 v 0 0 0 0"/><path id="path4718" d="m 160.45112,209.34009 10.4104,0.13178 27.20608,11.87539" style="fill:none;stroke:#f2f2f2;stroke-width:.529;stroke-linecap:butt;stroke-linejoin:miter;stroke-miterlimit:4;stroke-dasharray:none;stroke-opacity:1"/><path style="fill:none;stroke:#f2f2f2;stroke-width:.529;stroke-linecap:butt;stroke-linejoin:miter;stroke-miterlimit:4;stroke-dasharray:none;stroke-opacity:1" id="path4720" d="m 160.45112,183.75598 10.4104,0.13178 27.20608,37.4595"/><path id="path4722" d="m 160.45112,260.50832 10.4104,0.13178 27.20608,-39.29284" style="fill:none;stroke:#f2f2f2;stroke-width:.529;stroke-linecap:butt;stroke-linejoin:miter;stroke-miterlimit:4;stroke-dasharray:none;stroke-opacity:1"/><path style="fill:none;stroke:#f2f2f2;stroke-width:.529;stroke-linecap:butt;stroke-linejoin:miter;stroke-miterlimit:4;stroke-dasharray:none;stroke-opacity:1;marker-mid:url(#marker6321)" id="path4890" d="m 198.0676,221.34726 10.4104,0.13178"/><circle style="opacity:1;vector-effect:none;fill:#f2f2f2;fill-opacity:1;stroke:none;stroke-width:.529;stroke-linecap:butt;stroke-linejoin:miter;stroke-miterlimit:4;stroke-dasharray:none;stroke-dashoffset:0;stroke-opacity:1" id="path4747" cx="198.036" cy="221.347" r="2.5"/><path style="fill:none;stroke:#f2f2f2;stroke-width:.529;stroke-linecap:butt;stroke-linejoin:miter;stroke-miterlimit:4;stroke-dasharray:none;stroke-opacity:1;marker-end:url(#marker4741)" id="path5639" d="m 272.1476,221.41823 h 19.43164"/><rect style="opacity:1;fill:none;fill-opacity:1;stroke:#000;stroke-width:.21902578;stroke-miterlimit:4;stroke-dasharray:.21902578,.21902578;stroke-dashoffset:0;stroke-opacity:1" id="rect4647" width="194.475" height="99.781" x="114.213" y="15.476"/><g id="g4657" transform="translate(-10.054167,-156.63333)"><rect id="rect4649" width="64" height="32" x="334.376" y="206.54" rx="0" ry="2.337" style="fill:#f2f2f2;fill-opacity:1;stroke:#ccc;stroke-width:.57621408;stroke-miterlimit:4;stroke-dasharray:none;stroke-opacity:1"/><text style="font-style:normal;font-weight:400;font-size:11.28888893px;line-height:1;font-family:sans-serif;text-align:start;letter-spacing:0;word-spacing:0;text-anchor:start;fill:#404040;fill-opacity:1;stroke:none;stroke-width:.26458332" id="text4655" x="366.577" y="220.01" xml:space="preserve"><tspan style="font-style:normal;font-variant:normal;font-weight:400;font-stretch:normal;font-size:11.28888893px;line-height:.75;font-family:sans-serif;-inkscape-font-specification:'sans-serif, Normal';font-variant-ligatures:normal;font-variant-caps:normal;font-variant-numeric:normal;font-feature-settings:normal;text-align:center;writing-mode:lr-tb;text-anchor:middle;fill:#404040;fill-opacity:1;stroke-width:.26458332" id="tspan4651" x="366.577" y="220.01">generated</tspan><tspan style="font-style:normal;font-variant:normal;font-weight:400;font-stretch:normal;font-size:11.28888893px;line-height:.75;font-family:sans-serif;-inkscape-font-specification:'sans-serif, Normal';font-variant-ligatures:normal;font-variant-caps:normal;font-variant-numeric:normal;font-feature-settings:normal;text-align:center;writing-mode:lr-tb;text-anchor:middle;fill:#404040;fill-opacity:1;stroke-width:.26458332" id="tspan4653" x="366.577" y="231.299">password</tspan></text></g><rect style="fill:#0275d8;fill-opacity:1;stroke:none;stroke-width:.57621408;stroke-miterlimit:4;stroke-dasharray:none;stroke-opacity:1" id="rect4659" width="64" height="32" x="157.473" y="50.036" rx="0" ry="2.337"/><text id="text4665" x="189.339" y="63.664" xml:space="preserve" style="font-style:normal;font-weight:400;font-size:10.58333302px;line-height:1;font-family:sans-serif;letter-spacing:0;word-spacing:0;fill:#fff;fill-opacity:1;stroke:none;stroke-width:.26458332"><tspan style="line-height:.75;text-align:center;text-anchor:middle;fill:#fff;fill-opacity:1;stroke-width:.26458332" id="tspan4661" x="189.339" y="63.664">calc</tspan><tspan id="tspan4663" x="189.339" y="74.248" style="line-height:.75;text-align:center;text-anchor:middle;fill:#fff;fill-opacity:1;stroke-width:.26458332">entropy</tspan></text><rect id="rect4667" width="64" height="32" x="231.89" y="49.907" rx="0" ry="2.337" style="fill:#0275d8;fill-opacity:1;stroke:none;stroke-width:.57621408;stroke-miterlimit:4;stroke-dasharray:none;stroke-opacity:1"/><text style="font-style:normal;font-weight:400;font-size:10.58333302px;line-height:1;font-family:sans-serif;letter-spacing:0;word-spacing:0;fill:#fff;fill-opacity:1;stroke:none;stroke-width:.26458332" id="text4673" x="263.89" y="63.535" xml:space="preserve"><tspan id="tspan4669" x="263.89" y="63.535" style="text-align:center;text-anchor:middle;fill:#fff;fill-opacity:1;stroke-width:.26458332">render</tspan><tspan id="tspan4671" x="263.89" y="74.118" style="text-align:center;text-anchor:middle;fill:#fff;fill-opacity:1;stroke-width:.26458332">password</tspan></text><g style="stroke-width:.26458332;stroke-miterlimit:4;stroke-dasharray:none" id="g4683" transform="translate(487.69434,-136.54804)"><rect style="opacity:1;vector-effect:none;fill:#f2f2f2;fill-opacity:1;stroke:#ccc;stroke-width:.26458332;stroke-linecap:butt;stroke-linejoin:miter;stroke-miterlimit:4;stroke-dasharray:none;stroke-dashoffset:0;stroke-opacity:1" id="rect4675" width="117.116" height="16.413" x="-495.192" y="206.53" ry="1.355"/><path style="fill:#404040;fill-opacity:1;stroke-width:.26458332;stroke-miterlimit:4;stroke-dasharray:none" id="path4677" d="m -487.44104,214.35196 h 3.07879 v -1.15455 q 0,-0.6374 -0.45099,-1.0884 -0.451,-0.451 -1.0884,-0.451 -0.63741,0 -1.0884,0.451 -0.451,0.451 -0.451,1.0884 z m 5.00304,0.57728 v 3.46363 q 0,0.24053 -0.16837,0.40891 -0.16838,0.16836 -0.40891,0.16836 h -5.77272 q -0.24054,0 -0.40891,-0.16836 -0.16837,-0.16838 -0.16837,-0.40891 v -3.46363 q 0,-0.24054 0.16837,-0.40891 0.16837,-0.16837 0.40891,-0.16837 h 0.19242 v -1.15455 q 0,-1.10644 0.79375,-1.90019 0.79375,-0.79376 1.90019,-0.79376 1.10644,0 1.90019,0.79376 0.79375,0.79375 0.79375,1.90019 v 1.15455 h 0.19242 q 0.24053,0 0.40891,0.16837 0.16837,0.16838 0.16837,0.40891 z"/><text id="text4681" x="-479.935" y="217.851" xml:space="preserve" style="font-style:normal;font-weight:400;font-size:11.28888893px;line-height:1;font-family:sans-serif;text-align:start;letter-spacing:0;word-spacing:0;text-anchor:start;fill:#404040;fill-opacity:1;stroke:none;stroke-width:.26458332;stroke-miterlimit:4;stroke-dasharray:none"><tspan id="tspan4679" x="-479.935" y="217.851" style="font-style:normal;font-variant:normal;font-weight:400;font-stretch:normal;font-size:11.28888893px;line-height:.75;font-family:sans-serif;-inkscape-font-specification:'sans-serif, Normal';font-variant-ligatures:normal;font-variant-caps:normal;font-variant-numeric:normal;font-feature-settings:normal;text-align:start;writing-mode:lr-tb;text-anchor:start;fill:#404040;fill-opacity:1;stroke-width:.26458332;stroke-miterlimit:4;stroke-dasharray:none">master password</tspan></text></g><g id="g4693" transform="translate(487.69434,-136.54804)"><rect id="rect4685" width="47.432" height="16.729" x="-425.35" y="180.788" ry="1.381" style="opacity:1;vector-effect:none;fill:#f2f2f2;fill-opacity:1;stroke:#ccc;stroke-width:.5291667;stroke-linecap:butt;stroke-linejoin:miter;stroke-miterlimit:4;stroke-dasharray:none;stroke-dashoffset:0;stroke-opacity:1"/><path style="fill:#404040;fill-opacity:1;stroke-width:.56779581;stroke-miterlimit:4;stroke-dasharray:none" id="path4687" d="m -412.00938,191.95836 q 0,0.66145 -0.40239,1.04455 -0.40238,0.38309 -1.06935,0.38309 h -4.81763 q -0.66697,0 -1.06935,-0.38309 -0.40239,-0.3831 -0.40239,-1.04455 0,-0.29214 0.0193,-0.57051 0.0193,-0.27836 0.0772,-0.60082 0.0579,-0.32246 0.14607,-0.59807 0.0882,-0.27561 0.23703,-0.53743 0.14883,-0.26183 0.34175,-0.44649 0.19293,-0.18465 0.47129,-0.2949 0.27836,-0.11024 0.6146,-0.11024 0.0496,0 0.23152,0.11851 0.1819,0.11851 0.41065,0.26458 0.22876,0.14608 0.59531,0.26459 0.36656,0.11851 0.73588,0.11851 0.36931,0 0.73587,-0.11851 0.36656,-0.11851 0.59531,-0.26459 0.22875,-0.14607 0.41066,-0.26458 0.1819,-0.11851 0.23151,-0.11851 0.33624,0 0.6146,0.11024 0.27837,0.11025 0.47129,0.2949 0.19293,0.18466 0.34175,0.44649 0.14883,0.26182 0.23703,0.53743 0.0882,0.27561 0.14607,0.59807 0.0579,0.32246 0.0772,0.60082 0.0193,0.27837 0.0193,0.57051 z m -1.76389,-4.92235 q 0,0.87643 -0.62011,1.49655 -0.62012,0.62012 -1.49655,0.62012 -0.87644,0 -1.49655,-0.62012 -0.62012,-0.62011 -0.62012,-1.49655 0,-0.87643 0.62012,-1.49655 0.62011,-0.62012 1.49655,-0.62012 0.87643,0 1.49655,0.62012 0.62011,0.62012 0.62011,1.49655 z"/><text id="text4691" x="-410.021" y="192.267" xml:space="preserve" style="font-style:normal;font-variant:normal;font-weight:400;font-stretch:normal;font-size:11.28888893px;line-height:1.25;font-family:sans-serif;-inkscape-font-specification:'sans-serif, Normal';font-variant-ligatures:normal;font-variant-caps:normal;font-variant-numeric:normal;font-feature-settings:normal;text-align:start;letter-spacing:0;word-spacing:0;writing-mode:lr-tb;text-anchor:start;fill:#404040;fill-opacity:1;stroke:none;stroke-width:.56779581;stroke-miterlimit:4;stroke-dasharray:none"><tspan style="fill:#404040;fill-opacity:1;stroke-width:.56779581;stroke-miterlimit:4;stroke-dasharray:none" id="tspan4689" x="-410.021" y="192.267">login</tspan></text></g><rect id="rect4695" width="41.109" height="16.768" x="68.687" y="18.637" ry="1.384" style="opacity:1;vector-effect:none;fill:#f2f2f2;fill-opacity:1;stroke:#ccc;stroke-width:.5291667;stroke-linecap:butt;stroke-linejoin:miter;stroke-miterlimit:4;stroke-dasharray:none;stroke-dashoffset:0;stroke-opacity:1"/><path style="fill:#404040;fill-opacity:1;stroke-width:.00551215" id="path4697" d="m 79.418575,22.787197 q 1.15204,0 2.12493,0.56776 0.9729,0.56774 1.54065,1.54064 0.56775,0.9729 0.56775,2.12494 0,1.15204 -0.56775,2.12493 -0.56775,0.9729 -1.54065,1.54065 -0.97289,0.56775 -2.12493,0.56775 -1.15204,0 -2.12494,-0.56775 -0.97289,-0.56775 -1.54065,-1.54065 -0.56775,-0.97289 -0.56775,-2.12493 0,-1.15204 0.56775,-2.12494 0.56776,-0.9729 1.54065,-1.54064 0.9729,-0.56775 2.12494,-0.56776 z m 1.51033,2.87183 q -0.011,0.005 -0.0524,0.0524 -0.0413,0.0469 -0.0744,0.0524 0.011,0 0.0248,-0.0276 0.0138,-0.0276 0.0276,-0.0606 0.0138,-0.0331 0.0193,-0.0386 0.0331,-0.0386 0.12126,-0.0827 0.0772,-0.0331 0.28664,-0.0661 0.18741,-0.0441 0.28112,0.0606 -0.011,-0.011 0.0524,-0.0717 0.0634,-0.0606 0.0799,-0.0661 0.0165,-0.011 0.0827,-0.0248 0.0661,-0.0138 0.0827,-0.0414 l 0.011,-0.12127 q -0.0661,0.006 -0.0965,-0.0386 -0.0303,-0.0441 -0.0358,-0.11576 0,0.011 -0.0331,0.0441 0,-0.0386 -0.0248,-0.0441 -0.0248,-0.005 -0.0634,0.006 -0.0386,0.011 -0.0496,0.005 -0.0551,-0.0165 -0.0827,-0.0414 -0.0276,-0.0248 -0.0441,-0.091 -0.0165,-0.0661 -0.022,-0.0827 -0.011,-0.0276 -0.0524,-0.0579 -0.0413,-0.0303 -0.0524,-0.0579 -0.005,-0.011 -0.0138,-0.0303 -0.008,-0.0193 -0.0165,-0.0358 -0.008,-0.0165 -0.022,-0.0303 -0.0138,-0.0138 -0.0303,-0.0138 -0.0165,0 -0.0386,0.0276 -0.022,0.0276 -0.0413,0.0551 -0.0193,0.0276 -0.0248,0.0276 -0.0165,-0.011 -0.0331,-0.008 -0.0165,0.003 -0.0248,0.006 -0.008,0.003 -0.0248,0.0165 -0.0165,0.0138 -0.0276,0.0193 -0.0165,0.011 -0.0469,0.0165 -0.0303,0.006 -0.0469,0.011 0.0827,-0.0276 -0.005,-0.0606 -0.0551,-0.0221 -0.0882,-0.0166 0.0496,-0.0221 0.0413,-0.0661 -0.008,-0.0441 -0.0469,-0.0772 h 0.0276 q -0.005,-0.0221 -0.0469,-0.0469 -0.0413,-0.0248 -0.0965,-0.0468 -0.0551,-0.0221 -0.0717,-0.0331 -0.0441,-0.0276 -0.18742,-0.0524 -0.14331,-0.0248 -0.1819,-0.003 -0.0276,0.0331 -0.0248,0.0579 0.003,0.0248 0.022,0.0772 0.0193,0.0524 0.0193,0.0689 0.005,0.0331 -0.0303,0.0717 -0.0358,0.0386 -0.0358,0.0661 0,0.0386 0.0772,0.0854 0.0772,0.0468 0.0551,0.11851 -0.0165,0.0441 -0.0882,0.0882 -0.0717,0.0441 -0.0882,0.0661 -0.0276,0.0441 -0.008,0.10198 0.0193,0.0579 0.0579,0.0909 0.011,0.011 0.008,0.0221 -0.003,0.011 -0.0193,0.0248 -0.0165,0.0138 -0.0303,0.0221 -0.0138,0.008 -0.0358,0.0193 l -0.0165,0.011 q -0.0606,0.0276 -0.113,-0.0331 -0.0524,-0.0606 -0.0744,-0.14331 -0.0386,-0.13781 -0.0882,-0.16537 -0.12678,-0.0441 -0.15985,0.006 -0.0276,-0.0717 -0.226,-0.14332 -0.1378,-0.0496 -0.3197,-0.022 0.0331,-0.006 0,-0.0827 -0.0386,-0.0827 -0.10473,-0.0661 0.0165,-0.0331 0.022,-0.0965 0.006,-0.0634 0.006,-0.0744 0.0165,-0.0717 0.0661,-0.12678 0.005,-0.005 0.0386,-0.0468 0.0331,-0.0414 0.0524,-0.0744 0.0193,-0.0331 0.003,-0.0331 0.19292,0.0221 0.2756,-0.0606 0.0276,-0.0276 0.0634,-0.0937 0.0358,-0.0662 0.0579,-0.0937 0.0496,-0.0331 0.0772,-0.0303 0.0276,0.003 0.0799,0.0303 0.0524,0.0276 0.0799,0.0276 0.0772,0.005 0.0854,-0.0606 0.008,-0.0661 -0.0413,-0.11024 0.0661,0.005 0.0165,-0.0937 -0.0276,-0.0386 -0.0441,-0.0496 -0.0661,-0.022 -0.14882,0.0276 -0.0441,0.0221 0.011,0.0441 -0.005,-0.006 -0.0524,0.0579 -0.0468,0.0634 -0.0909,0.0965 -0.0441,0.0331 -0.0882,-0.0276 -0.005,-0.005 -0.0303,-0.0744 -0.0248,-0.0689 -0.0524,-0.0744 -0.0441,0 -0.0882,0.0827 0.0165,-0.0441 -0.0606,-0.0827 -0.0772,-0.0386 -0.1323,-0.0441 0.10473,-0.0661 -0.0441,-0.14882 -0.0386,-0.0221 -0.113,-0.0276 -0.0744,-0.005 -0.10748,0.022 -0.0276,0.0386 -0.0303,0.0634 -0.003,0.0248 0.0276,0.0441 0.0303,0.0193 0.0579,0.0303 0.0276,0.011 0.0634,0.0221 0.0358,0.011 0.0469,0.0165 0.0772,0.0551 0.0441,0.0772 -0.011,0.005 -0.0469,0.0193 -0.0358,0.0138 -0.0634,0.0248 -0.0276,0.011 -0.0331,0.0221 -0.0165,0.0221 0,0.0772 0.0165,0.0551 -0.011,0.0772 -0.0276,-0.0276 -0.0496,-0.0965 -0.022,-0.0689 -0.0386,-0.091 0.0386,0.0496 -0.13781,0.0331 l -0.0551,-0.006 q -0.0221,0 -0.0882,0.011 -0.0661,0.011 -0.113,0.005 -0.0469,-0.005 -0.0744,-0.0441 -0.0221,-0.0441 0,-0.11024 0.005,-0.0221 0.022,-0.011 -0.022,-0.0165 -0.0606,-0.0524 -0.0386,-0.0358 -0.0551,-0.0469 -0.25355,0.0827 -0.51814,0.22599 0.0331,0.006 0.0661,-0.005 0.0276,-0.011 0.0717,-0.0358 0.0441,-0.0248 0.0551,-0.0303 0.18741,-0.0772 0.23151,-0.0386 l 0.0276,-0.0276 q 0.0772,0.0882 0.11025,0.1378 -0.0386,-0.022 -0.16537,-0.005 -0.11024,0.0331 -0.12127,0.0661 0.0386,0.0661 0.0276,0.0992 -0.0221,-0.0166 -0.0634,-0.0551 -0.0413,-0.0386 -0.0799,-0.0606 -0.0386,-0.0221 -0.0827,-0.0276 -0.0882,0 -0.12126,0.006 -0.80478,0.44098 -1.29536,1.2237 0.0386,0.0386 0.0661,0.0441 0.0221,0.005 0.0276,0.0496 0.006,0.0441 0.0138,0.0606 0.008,0.0166 0.0634,-0.0166 0.0496,0.0441 0.0165,0.10473 0.005,-0.005 0.24253,0.14883 0.10473,0.0937 0.11576,0.11575 0.0165,0.0606 -0.0551,0.0992 -0.005,-0.011 -0.0496,-0.0496 -0.0441,-0.0386 -0.0496,-0.022 -0.0165,0.0276 0.003,0.10197 0.0193,0.0744 0.0579,0.0689 -0.0386,0 -0.0524,0.0882 -0.0138,0.0882 -0.0138,0.19568 0,0.10748 -0.005,0.12953 l 0.011,0.006 q -0.0165,0.0661 0.0303,0.19017 0.0469,0.12402 0.11851,0.10748 -0.0717,0.0165 0.11024,0.23702 0.0331,0.0441 0.0441,0.0496 0.0165,0.011 0.0661,0.0414 0.0496,0.0303 0.0827,0.0551 0.0331,0.0248 0.0551,0.0579 0.022,0.0276 0.0551,0.12403 0.0331,0.0965 0.0772,0.12953 -0.011,0.0331 0.0524,0.11025 0.0634,0.0772 0.0579,0.12678 -0.005,0 -0.0138,0.005 -0.008,0.006 -0.0138,0.006 0.0165,0.0386 0.0854,0.0772 0.0689,0.0386 0.0854,0.0717 0.005,0.0166 0.011,0.0551 0.005,0.0386 0.0165,0.0606 0.011,0.022 0.0441,0.011 0.011,-0.11025 -0.13229,-0.34176 -0.0827,-0.1378 -0.0937,-0.15985 -0.0165,-0.0276 -0.0303,-0.0854 -0.0138,-0.0579 -0.0248,-0.0799 0.011,0 0.0331,0.008 0.0221,0.008 0.0469,0.0193 0.0248,0.011 0.0413,0.0221 0.0165,0.011 0.011,0.0165 -0.0165,0.0386 0.011,0.0965 0.0276,0.0579 0.0662,0.10198 0.0386,0.0441 0.0937,0.10473 0.0551,0.0606 0.0661,0.0717 0.0331,0.0331 0.0772,0.10749 0.0441,0.0744 0,0.0744 0.0496,0 0.11024,0.0551 0.0606,0.0551 0.0937,0.11024 0.0276,0.0441 0.0441,0.14332 0.0165,0.0992 0.0276,0.13229 0.011,0.0386 0.0469,0.0744 0.0358,0.0358 0.0689,0.0524 l 0.0882,0.0441 0.0717,0.0386 q 0.0276,0.011 0.10198,0.0579 0.0744,0.0468 0.11851,0.0634 0.0551,0.022 0.0882,0.022 0.0331,0 0.0799,-0.0138 0.0469,-0.0138 0.0744,-0.0193 0.0827,-0.011 0.15985,0.0827 0.0772,0.0937 0.11576,0.11576 0.19844,0.10472 0.30317,0.0606 -0.011,0.005 0.003,0.0413 0.0138,0.0358 0.0441,0.0854 0.0303,0.0496 0.0496,0.0799 0.0193,0.0303 0.0303,0.0469 0.0276,0.0331 0.0992,0.0827 0.0717,0.0496 0.0992,0.0827 0.0331,-0.0221 0.0386,-0.0496 -0.0165,0.0441 0.0386,0.11024 0.0551,0.0662 0.0992,0.0551 0.0772,-0.0166 0.0772,-0.17639 -0.17088,0.0827 -0.2701,-0.0992 0,-0.005 -0.0138,-0.0303 -0.0138,-0.0248 -0.022,-0.0469 -0.008,-0.0221 -0.0138,-0.0469 -0.006,-0.0248 0,-0.0414 0.005,-0.0165 0.0276,-0.0165 0.0496,0 0.0551,-0.0193 0.005,-0.0193 -0.011,-0.0689 -0.0165,-0.0496 -0.022,-0.0717 -0.005,-0.0441 -0.0606,-0.11024 -0.0551,-0.0662 -0.0661,-0.0827 -0.0276,0.0496 -0.0882,0.0441 -0.0606,-0.005 -0.0882,-0.0496 0,0.006 -0.008,0.0303 -0.008,0.0248 -0.008,0.0358 -0.0717,0 -0.0827,-0.005 0.006,-0.0166 0.0138,-0.0965 0.008,-0.0799 0.0193,-0.12402 0.005,-0.0221 0.0303,-0.0661 0.0248,-0.0441 0.0413,-0.0799 0.0165,-0.0358 0.0221,-0.0689 0.005,-0.0331 -0.0248,-0.0524 -0.0303,-0.0193 -0.0965,-0.0138 -0.10473,0.005 -0.14331,0.11024 -0.006,0.0165 -0.0165,0.0579 -0.011,0.0413 -0.0276,0.0634 -0.0165,0.0221 -0.0496,0.0386 -0.0386,0.0165 -0.13229,0.011 -0.0937,-0.005 -0.1323,-0.0276 -0.0717,-0.0441 -0.12402,-0.15985 -0.0524,-0.11576 -0.0524,-0.20395 0,-0.0551 0.0138,-0.14608 0.0138,-0.0909 0.0165,-0.1378 0.003,-0.0469 -0.0303,-0.13505 0.0165,-0.011 0.0496,-0.0524 0.0331,-0.0413 0.0551,-0.0579 0.011,-0.005 0.0248,-0.008 0.0138,-0.003 0.0248,0 0.011,0.003 0.022,-0.008 0.011,-0.011 0.0165,-0.0331 -0.006,-0.005 -0.0221,-0.0165 -0.0165,-0.0165 -0.022,-0.0165 0.0386,0.0165 0.1571,-0.008 0.11851,-0.0248 0.15158,0.008 0.0827,0.0606 0.12127,-0.011 0,-0.006 -0.0138,-0.0524 -0.0138,-0.0469 -0.003,-0.0744 0.0276,0.14883 0.15985,0.0496 0.0165,0.0165 0.0854,0.0276 0.0689,0.011 0.0965,0.0276 0.0165,0.011 0.0386,0.0303 0.0221,0.0193 0.0303,0.0248 0.008,0.006 0.0276,-0.003 0.0193,-0.008 0.0469,-0.0358 0.0551,0.0772 0.0661,0.13229 0.0606,0.22049 0.10473,0.24254 0.0386,0.0165 0.0606,0.011 0.022,-0.005 0.0248,-0.0524 0.003,-0.0469 0,-0.0772 -0.003,-0.0303 -0.008,-0.0689 l -0.006,-0.0441 v -0.0992 l -0.005,-0.0441 q -0.0827,-0.0166 -0.10197,-0.0661 -0.0193,-0.0496 0.008,-0.10198 0.0276,-0.0524 0.0827,-0.10197 0.005,-0.006 0.0441,-0.0193 0.0386,-0.0138 0.0854,-0.0358 0.0468,-0.0221 0.0689,-0.0441 0.11575,-0.10472 0.0827,-0.19292 0.0386,0 0.0606,-0.0496 -0.005,0 -0.0276,-0.0165 -0.022,-0.0166 -0.0413,-0.0276 -0.0193,-0.011 -0.0248,-0.011 0.0496,-0.0276 0.011,-0.0882 0.0276,-0.0165 0.0413,-0.0606 0.0138,-0.0441 0.0413,-0.0551 0.0496,0.0662 0.11575,0.011 0.0386,-0.0441 0.006,-0.0882 0.0276,-0.0386 0.113,-0.0579 0.0854,-0.0193 0.10198,-0.0524 0.0386,0.011 0.0441,-0.011 0.005,-0.0221 0.005,-0.0662 0,-0.0441 0.0165,-0.0661 0.022,-0.0276 0.0827,-0.0496 0.0606,-0.0221 0.0717,-0.0276 l 0.0937,-0.0606 q 0.0165,-0.0221 0,-0.0221 0.0992,0.011 0.17087,-0.0606 0.0551,-0.0606 -0.0331,-0.11025 0.0165,-0.0331 -0.0165,-0.0524 -0.0331,-0.0193 -0.0827,-0.0303 0.0165,-0.005 0.0634,-0.003 0.0469,0.003 0.0579,-0.008 0.0827,-0.0551 -0.0386,-0.0882 -0.0937,-0.0276 -0.23702,0.0661 z m -0.89848,4.83416 q 1.1355,-0.19844 1.93476,-1.0418 -0.0165,-0.0165 -0.0689,-0.0248 -0.0524,-0.008 -0.0689,-0.0193 -0.0992,-0.0386 -0.13229,-0.0441 0.005,-0.0386 -0.0138,-0.0717 -0.0193,-0.0331 -0.0441,-0.0496 -0.0248,-0.0165 -0.0689,-0.0441 -0.0441,-0.0276 -0.0606,-0.0386 -0.011,-0.011 -0.0386,-0.0331 -0.0276,-0.0221 -0.0386,-0.0303 -0.011,-0.008 -0.0413,-0.0248 -0.0303,-0.0165 -0.0469,-0.011 -0.0165,0.006 -0.0551,0.006 l -0.0165,0.005 q -0.0165,0.005 -0.0303,0.0138 -0.0138,0.008 -0.0303,0.0165 -0.0165,0.008 -0.0221,0.0165 -0.005,0.008 0,0.0138 -0.11576,-0.0937 -0.19844,-0.12127 -0.0276,-0.006 -0.0606,-0.0303 -0.0331,-0.0248 -0.0579,-0.0386 -0.0248,-0.0138 -0.0551,-0.008 -0.0303,0.006 -0.0634,0.0386 -0.0276,0.0276 -0.0331,0.0827 -0.006,0.0551 -0.011,0.0717 -0.0386,-0.0276 0,-0.0965 0.0386,-0.0689 0.011,-0.10198 -0.0165,-0.0331 -0.0579,-0.0248 -0.0413,0.008 -0.0661,0.0248 -0.0248,0.0165 -0.0634,0.0468 -0.0386,0.0303 -0.0496,0.0358 -0.011,0.006 -0.0469,0.0303 -0.0358,0.0248 -0.0469,0.0414 -0.0165,0.022 -0.0331,0.0661 -0.0165,0.0441 -0.0276,0.0606 -0.011,-0.0221 -0.0634,-0.0358 -0.0524,-0.0138 -0.0524,-0.0303 0.011,0.0551 0.022,0.19292 0.011,0.1378 0.0276,0.20947 0.0386,0.17088 -0.0661,0.26457 -0.14883,0.13781 -0.15985,0.2205 -0.022,0.12127 0.0661,0.14331 0,0.0386 -0.0441,0.113 -0.0441,0.0744 -0.0386,0.11852 0,0.0331 0.011,0.0882 z"/><text id="text4701" x="85.977" y="30.703" xml:space="preserve" style="font-style:normal;font-variant:normal;font-weight:400;font-stretch:normal;font-size:9.87777805px;line-height:1.25;font-family:sans-serif;-inkscape-font-specification:'sans-serif, Normal';font-variant-ligatures:normal;font-variant-caps:normal;font-variant-numeric:normal;font-feature-settings:normal;text-align:start;letter-spacing:0;word-spacing:0;writing-mode:lr-tb;text-anchor:start;fill:#404040;fill-opacity:1;stroke:none;stroke-width:.26458332"><tspan style="fill:#404040;fill-opacity:1;stroke-width:.26458332" id="tspan4699" x="85.977" y="30.703">site</tspan></text><g id="g4713" transform="translate(487.69434,-136.54804)"><rect style="opacity:1;vector-effect:none;fill:#f2f2f2;fill-opacity:1;stroke:#ccc;stroke-width:.5291667;stroke-linecap:butt;stroke-linejoin:miter;stroke-miterlimit:4;stroke-dasharray:none;stroke-dashoffset:0;stroke-opacity:1" id="rect4703" width="62.351" height="16.648" x="-440.309" y="231.997" ry="1.374"/><g id="g4711" transform="translate(-383.71564,196.59593)" style="fill:#404040;fill-opacity:1"><path style="fill:#404040;fill-opacity:1;stroke-width:.00575726" id="path4705" d="m -49.460938,46.155384 v 0.76969 h -1.940277 v -0.76969 z m 1.940277,-0.7697 q 0.143316,0 0.248047,0.11425 0.104731,0.11425 0.104731,0.2706 v 1.53939 q 0,0.15635 -0.104731,0.2706 -0.104731,0.11425 -0.248047,0.11425 h -1.41111 q -0.143316,0 -0.248047,-0.11425 -0.104731,-0.11425 -0.104731,-0.2706 v -1.53939 q 0,-0.15635 0.104731,-0.2706 0.104731,-0.11425 0.248047,-0.11425 z m 0.881945,-2.30909 v 0.7697 h -4.762499 v -0.7697 z m -3.527777,-3.07879 v 0.7697 h -1.234722 v -0.7697 z m 7.231943,6.15758 v 0.76969 h -4.056944 v -0.76969 z m -5.291666,-6.92728 q 0.143315,0 0.248046,0.11426 0.104731,0.11425 0.104731,0.27059 v 1.5394 q 0,0.15634 -0.104731,0.27059 -0.104731,0.11425 -0.248046,0.11425 h -1.411111 q -0.143315,0 -0.248047,-0.11425 -0.10473,-0.11425 -0.10473,-0.27059 v -1.5394 q 0,-0.15634 0.10473,-0.27059 0.104732,-0.11426 0.248047,-0.11426 z m 3.527777,3.07879 q 0.143316,0 0.248047,0.11425 0.104731,0.11426 0.104731,0.2706 v 1.53939 q 0,0.15635 -0.104731,0.2706 -0.104731,0.11425 -0.248047,0.11425 h -1.411111 q -0.143316,0 -0.248047,-0.11425 -0.104731,-0.11425 -0.104731,-0.2706 v -1.53939 q 0,-0.15634 0.104731,-0.2706 0.104731,-0.11425 0.248047,-0.11425 z m 1.763889,0.7697 v 0.7697 h -1.234722 v -0.7697 z m 0,-3.07879 v 0.7697 h -4.7625 v -0.7697 z"/><text id="text4709" x="-40.462" y="46.839" xml:space="preserve" style="font-style:normal;font-variant:normal;font-weight:400;font-stretch:normal;font-size:11.28888893px;line-height:1.25;font-family:sans-serif;-inkscape-font-specification:'sans-serif, Normal';font-variant-ligatures:normal;font-variant-caps:normal;font-variant-numeric:normal;font-feature-settings:normal;text-align:start;letter-spacing:0;word-spacing:0;writing-mode:lr-tb;text-anchor:start;fill:#404040;fill-opacity:1;stroke:none;stroke-width:.26458332"><tspan style="fill:#404040;fill-opacity:1;stroke-width:.26458332" id="tspan4707" x="-40.462" y="46.839">options</tspan></text></g></g><path id="path4715" d="m 109.77674,78.290867 10.4104,0.13178 27.20608,-13.70872 v 0 0 0 0" style="fill:none;stroke:#757475;stroke-width:.5291667;stroke-linecap:butt;stroke-linejoin:miter;stroke-miterlimit:4;stroke-dasharray:none;stroke-opacity:1"/><path style="fill:none;stroke:#757475;stroke-width:.5291667;stroke-linecap:butt;stroke-linejoin:miter;stroke-miterlimit:4;stroke-dasharray:none;stroke-opacity:1" id="path4717" d="m 109.77674,52.706757 10.4104,0.13178 27.20608,11.87539"/><path id="path4719" d="m 109.77674,27.122647 10.4104,0.13178 27.20608,37.4595" style="fill:none;stroke:#757475;stroke-width:.5291667;stroke-linecap:butt;stroke-linejoin:miter;stroke-miterlimit:4;stroke-dasharray:none;stroke-opacity:1"/><path style="fill:none;stroke:#757475;stroke-width:.52899998;stroke-linecap:butt;stroke-linejoin:miter;stroke-miterlimit:4;stroke-dasharray:none;stroke-opacity:1" id="path4721" d="m 109.77674,103.87499 10.4104,0.13178 27.20608,-39.292843"/><path id="path4723" d="m 147.39322,64.713927 10.4104,0.13178" style="fill:none;stroke:#757475;stroke-width:.5291667;stroke-linecap:butt;stroke-linejoin:miter;stroke-miterlimit:4;stroke-dasharray:none;stroke-opacity:1"/><circle id="circle4725" cx="147.362" cy="64.713" r="2.5" style="opacity:1;vector-effect:none;fill:#757475;fill-opacity:1;stroke:none;stroke-width:.19185618;stroke-linecap:butt;stroke-linejoin:miter;stroke-miterlimit:4;stroke-dasharray:none;stroke-dashoffset:0;stroke-opacity:1"/><path id="path4727" d="m 226.68175,65.597987 v 16.37026" style="fill:none;stroke:#000;stroke-width:.26458332px;stroke-linecap:butt;stroke-linejoin:miter;stroke-opacity:1"/><path id="path4729" d="m 221.47656,65.507677 h 10.37403" style="fill:none;stroke:#757475;stroke-width:.5291667;stroke-linecap:butt;stroke-linejoin:miter;stroke-miterlimit:4;stroke-dasharray:none;stroke-opacity:1"/><path id="path4731" d="M 226.68175,65.597987 V 103.96341 H 120.12195" style="fill:none;stroke:#757475;stroke-width:.5291667;stroke-linecap:butt;stroke-linejoin:miter;stroke-miterlimit:4;stroke-dasharray:none;stroke-opacity:1"/><circle style="opacity:1;vector-effect:none;fill:#757475;fill-opacity:1;stroke:none;stroke-width:.19185618;stroke-linecap:butt;stroke-linejoin:miter;stroke-miterlimit:4;stroke-dasharray:none;stroke-dashoffset:0;stroke-opacity:1" id="circle4733" cx="120.421" cy="103.979" r="2.5"/><circle id="circle4735" cx="226.784" cy="65.615" r="2.5" style="opacity:1;vector-effect:none;fill:#757475;fill-opacity:1;stroke:none;stroke-width:.19185618;stroke-linecap:butt;stroke-linejoin:miter;stroke-miterlimit:4;stroke-dasharray:none;stroke-dashoffset:0;stroke-opacity:1"/><path id="path4737" d="m 295.8903,65.912007 h 27.3431" style="fill:none;stroke:#757475;stroke-width:.5291667;stroke-linecap:butt;stroke-linejoin:miter;stroke-miterlimit:4;stroke-dasharray:none;stroke-opacity:1;marker-end:url(#marker5904)"/></g></svg>