<svg xmlns="http://www.w3.org/2000/svg" xmlns:svg="http://www.w3.org/2000/svg" id="svg3039" width="222" height="60" version="1.1"><metadata id="metadata3045"/><defs id="defs3043"><filter id="filter5169" style="color-interpolation-filters:sRGB"><feFlood id="feFlood5171" flood-color="#000" flood-opacity=".4" result="flood"/><feComposite id="feComposite5173" in="flood" in2="SourceGraphic" operator="in" result="composite1"/><feGaussianBlur id="feGaussianBlur5175" result="blur" stdDeviation="2"/><feOffset id="feOffset5177" dx="4" dy="4" result="offset"/><feComposite id="feComposite5179" in="SourceGraphic" in2="offset" operator="over" result="composite2"/></filter><filter id="filter3013" style="color-interpolation-filters:sRGB"><feFlood id="feFlood3015" flood-color="#000" flood-opacity=".4" result="flood"/><feComposite id="feComposite3017" in="flood" in2="SourceGraphic" operator="in" result="composite1"/><feGaussianBlur id="feGaussianBlur3019" result="blur" stdDeviation="1"/><feOffset id="feOffset3021" dx="4" dy="4" result="offset"/><feComposite id="feComposite3023" in="SourceGraphic" in2="offset" operator="over" result="composite2"/></filter><filter id="filter3097" style="color-interpolation-filters:sRGB"><feFlood id="feFlood3099" flood-color="#000" flood-opacity=".4" result="flood"/><feComposite id="feComposite3101" in="flood" in2="SourceGraphic" operator="in" result="composite1"/><feGaussianBlur id="feGaussianBlur3103" result="blur" stdDeviation="2"/><feOffset id="feOffset3105" dx="4" dy="4" result="offset"/><feComposite id="feComposite3107" in="SourceGraphic" in2="offset" operator="over" result="composite2"/></filter></defs><g id="g3359" transform="translate(-3.4209716,5.800689e-8)"><rect id="rect3843" width="40.035" height="40.035" x="-19.72" y="22.706" rx="8.007" transform="matrix(0.70710678,-0.70710678,0.70710678,0.70710678,0,0)" style="opacity:.9;fill:#0275d8;fill-opacity:1;stroke:none"/><path id="path3056" d="m 79.920829,55.040201 c -12.36404,0 -22.47187,10.13599 -22.47187,22.5 0,10.27949 6.99118,18.97952 16.45312,21.62813 l 0,45.871869 4.21875,0 7.81876,0 6.21562,0 c 0.12595,0 0.225,-0.0991 0.225,-0.225 l 0,-10.2375 c 0,-0.12594 -0.10402,-0.26004 -0.225,-0.225 l -6.21562,0 0,-3.85312 6.21562,0 c 0.12595,0 0.225,-0.0991 0.225,-0.225 l 0,-10.2375 c 0,-0.12595 -0.099,-0.225 -0.225,-0.225 l -6.21562,0 0,-20.643749 c 9.46192,-2.64861 16.453121,-11.34863 16.453121,-21.62813 0,-12.36402 -10.107881,-22.5 -22.471881,-22.5 z m 0,8.83125 c 7.59627,0 13.64063,6.07247 13.64063,13.66875 0,7.59632 -6.04436,13.64063 -13.64063,13.64063 -7.59624,0 -13.64062,-6.04431 -13.64062,-13.64063 0,-7.59628 6.04438,-13.66875 13.64062,-13.66875 z" transform="matrix(0.33333334,0,0,0.33333334,3.7806919,-3.3467343)" style="color:#000;font-style:normal;font-variant:normal;font-weight:400;font-stretch:normal;font-size:medium;line-height:normal;font-family:Sans;-inkscape-font-specification:Sans;text-indent:0;text-align:start;text-decoration:none;text-decoration-line:none;letter-spacing:normal;word-spacing:normal;text-transform:none;direction:ltr;block-progression:tb;writing-mode:lr-tb;baseline-shift:baseline;text-anchor:start;display:inline;overflow:visible;visibility:visible;fill:#fff;fill-opacity:1;fill-rule:nonzero;stroke:none;stroke-width:10;marker:none;filter:url(#filter3013);enable-background:accumulate"/></g><text style="font-style:normal;font-weight:400;font-size:20px;line-height:125%;font-family:sans-serif;letter-spacing:0;word-spacing:0;fill:#fff;fill-opacity:1;stroke:none" id="text3355" x="54.117" y="43.298" xml:space="preserve"><tspan id="tspan3357" x="54.117" y="43.298" style="font-style:normal;font-variant:normal;font-weight:400;font-stretch:normal;font-size:45px;font-family:Ubuntu;-inkscape-font-specification:Ubuntu;fill:#fff;fill-opacity:1">lesspass</tspan></text></svg>