<svg xmlns="http://www.w3.org/2000/svg" xmlns:svg="http://www.w3.org/2000/svg" id="svg3039" width="180" height="180" version="1.1"><metadata id="metadata3045"/><defs id="defs3043"><filter id="filter5169" style="color-interpolation-filters:sRGB"><feFlood id="feFlood5171" flood-color="#000" flood-opacity=".4" result="flood"/><feComposite id="feComposite5173" in="flood" in2="SourceGraphic" operator="in" result="composite1"/><feGaussianBlur id="feGaussianBlur5175" result="blur" stdDeviation="2"/><feOffset id="feOffset5177" dx="4" dy="4" result="offset"/><feComposite id="feComposite5179" in="SourceGraphic" in2="offset" operator="over" result="composite2"/></filter><filter id="filter3013" style="color-interpolation-filters:sRGB"><feFlood id="feFlood3015" flood-color="#000" flood-opacity=".4" result="flood"/><feComposite id="feComposite3017" in="flood" in2="SourceGraphic" operator="in" result="composite1"/><feGaussianBlur id="feGaussianBlur3019" result="blur" stdDeviation="1"/><feOffset id="feOffset3021" dx="4" dy="4" result="offset"/><feComposite id="feComposite3023" in="SourceGraphic" in2="offset" operator="over" result="composite2"/></filter><filter id="filter3097" style="color-interpolation-filters:sRGB"><feFlood id="feFlood3099" flood-color="#000" flood-opacity=".4" result="flood"/><feComposite id="feComposite3101" in="flood" in2="SourceGraphic" operator="in" result="composite1"/><feGaussianBlur id="feGaussianBlur3103" result="blur" stdDeviation="2"/><feOffset id="feOffset3105" dx="4" dy="4" result="offset"/><feComposite id="feComposite3107" in="SourceGraphic" in2="offset" operator="over" result="composite2"/></filter></defs><path style="opacity:.9;fill:#fff;fill-opacity:1;stroke:none;filter:url(#filter3097)" id="rect3044" d="m 88.85937,15.01627 c -5.751278,0.27568 -11.432799,2.6203 -15.843752,7.031248 L 22.046868,73.01626 c -9.410033,9.41003 -9.410033,24.55872 0,33.96875 l 50.96875,50.96875 c 9.410033,9.41003 24.558722,9.41003 33.968752,0 l 50.96875,-50.96875 c 9.41003,-9.41003 9.41003,-24.55872 0,-33.96875 L 106.98437,22.047518 C 101.98529,17.04844 95.37748,14.70383 88.85937,15.01627 Z m 0,30 c 0.38173,-0.0196 0.76987,0 1.15625,0 12.364,0 22.46875,10.13598 22.46875,22.49999 0,10.2795 -7.00683,18.97639 -16.46875,21.625 l 0,20.625 6.21875,0 c 0.126,0 0.21875,0.0928 0.21875,0.21875 l 0,10.25 c 0,0.1259 -0.0928,0.21875 -0.21875,0.21875 l -6.21875,0 0,3.875 6.21875,0 c 0.12098,-0.035 0.21875,0.0928 0.21875,0.21875 l 0,10.21875 c 0,0.1259 -0.0928,0.25 -0.21875,0.25 l -6.21875,0 -7.8125,0 -4.218752,0 0,-45.875 c -9.46194,-2.64861 -16.46875,-11.34551 -16.46875,-21.625 0,-11.97763 9.510121,-21.89377 21.343752,-22.49999 z m 1.15625,8.8125 c -7.596242,0 -13.656252,6.09122 -13.656252,13.68749 0,7.59632 6.06001,13.625 13.656252,13.625 7.59627,0 13.625,-6.02868 13.625,-13.625 0,-7.59627 -6.02873,-13.68749 -13.625,-13.68749 z"/></svg>