<svg xmlns="http://www.w3.org/2000/svg" xmlns:svg="http://www.w3.org/2000/svg" id="svg3039" width="118.969" height="118.97" version="1.1"><metadata id="metadata3045"/><defs id="defs3043"><filter id="filter5169" style="color-interpolation-filters:sRGB"><feFlood id="feFlood5171" flood-color="#000" flood-opacity=".4" result="flood"/><feComposite id="feComposite5173" in="flood" in2="SourceGraphic" operator="in" result="composite1"/><feGaussianBlur id="feGaussianBlur5175" result="blur" stdDeviation="2"/><feOffset id="feOffset5177" dx="4" dy="4" result="offset"/><feComposite id="feComposite5179" in="SourceGraphic" in2="offset" operator="over" result="composite2"/></filter><filter id="filter3013" style="color-interpolation-filters:sRGB"><feFlood id="feFlood3015" flood-color="#000" flood-opacity=".4" result="flood"/><feComposite id="feComposite3017" in="flood" in2="SourceGraphic" operator="in" result="composite1"/><feGaussianBlur id="feGaussianBlur3019" result="blur" stdDeviation="1"/><feOffset id="feOffset3021" dx="4" dy="4" result="offset"/><feComposite id="feComposite3023" in="SourceGraphic" in2="offset" operator="over" result="composite2"/></filter><filter id="filter3097" style="color-interpolation-filters:sRGB"><feFlood id="feFlood3099" flood-color="#000" flood-opacity=".4" result="flood"/><feComposite id="feComposite3101" in="flood" in2="SourceGraphic" operator="in" result="composite1"/><feGaussianBlur id="feGaussianBlur3103" result="blur" stdDeviation="2"/><feOffset id="feOffset3105" dx="4" dy="4" result="offset"/><feComposite id="feComposite3107" in="SourceGraphic" in2="offset" operator="over" result="composite2"/></filter><style id="style914"/></defs><flowRoot style="font-style:normal;font-variant:normal;font-weight:400;font-stretch:normal;font-size:56px;line-height:1.25;font-family:'Red Hat Display';-inkscape-font-specification:'Red Hat Display';letter-spacing:0;word-spacing:0;writing-mode:lr-tb" id="flowRoot838" transform="translate(-242.27823,-112.08967)" xml:space="preserve"><flowRegion id="flowRegion840"><rect id="rect842" width="544.712" height="255.637" x="-85.212" y="-186.71"/></flowRegion><flowPara id="flowPara844"/></flowRoot><rect id="rect872" width="118.969" height="118.97" x="0" y="0" style="fill:#3398eb;fill-opacity:1;stroke:none;stroke-width:.826386"/><path style="fill:#1a7fd2;fill-opacity:1;stroke:none;stroke-width:1px;stroke-linecap:butt;stroke-linejoin:miter;stroke-opacity:1" id="path862" d="m 75.373637,22.262669 -21.7793,81.283201 15.42383,15.42382 H 118.96934 V 65.858369 Z"/><g id="g896" transform="translate(341.38731,15.280243)"><path id="path868" d="m -283.01952,0.15269421 c 0.37373,-0.0192 0.75373,0 1.13201,0 12.10473,0 21.99757,9.92341979 21.99757,22.02814979 0,10.06393 -6.85989,18.57845 -16.1234,21.17152 v 20.19249 h 6.08835 c 0.12336,0 0.21416,0.0909 0.21416,0.21416 v 10.035043 c 0,0.12326 -0.0909,0.21417 -0.21416,0.21417 h -6.08835 v 3.79374 h 6.08835 c 0.11844,-0.0343 0.21416,0.0909 0.21416,0.21417 v 10.00446 c 0,0.12325 -0.0909,0.24475 -0.21416,0.24475 h -6.08835 -7.64867 -4.13028 V 43.352364 c -9.26351,-2.59307 -16.12339,-11.1076 -16.12339,-21.17152 0,-11.72645 9.31069,-21.43464979 20.89616,-22.02814979 z" style="fill:#fff;fill-opacity:1;stroke:none;stroke-width:.979029"/><path id="path870" d="m -281.88751,8.7803842 c -7.43695,0 -13.36988,5.9634898 -13.36988,13.4004598 0,7.43702 5.93293,13.33928 13.36988,13.33928 7.43697,0 13.33928,-5.90226 13.33928,-13.33928 0,-7.43697 -5.90231,-13.4004598 -13.33928,-13.4004598 z" style="fill:#3398eb;fill-opacity:1;stroke:none;stroke-width:.979029"/></g></svg>